<svg xmlns="http://www.w3.org/2000/svg" xmlns:xlink="http://www.w3.org/1999/xlink" width="250.837" height="98.6" viewBox="0 0 250.837 98.6"><defs><style>.a{clip-path:url(#a);}.b,.d{fill:none;stroke:#707070;stroke-miterlimit:10;}.b{stroke-width:0.75px;}.c{clip-path:url(#b);}.d{stroke-width:0.5px;}.e{fill:url(#c);}.f{fill:url(#d);}.g{fill:url(#e);}.h{fill:url(#f);}.i{fill:url(#g);}.j{fill:url(#h);}.k{fill:url(#i);}.l{fill:url(#j);}.m{fill:url(#k);}.n{fill:url(#l);}.o{fill:url(#m);}.p{fill:url(#n);}.q{fill:url(#o);}.r{fill:url(#p);}.s{fill:url(#q);}.t{fill:url(#r);}.u{fill:url(#s);}.v{fill:url(#t);}.w{fill:url(#u);}.x{fill:url(#v);}.y{fill:url(#w);}.z{fill:url(#x);}</style><clipPath id="a"><path d="M328.5,242a49.3,49.3,0,1,0,49.3,49.3A49.314,49.314,0,0,0,328.5,242Zm0,90.1a40.892,40.892,0,1,1,40.892-40.892A40.909,40.909,0,0,1,328.5,332.1Z" transform="translate(-279.2 -242)"/></clipPath><clipPath id="b"><path d="M328.5,242a49.3,49.3,0,1,0,49.3,49.3A49.314,49.314,0,0,0,328.5,242Zm0,93.909a44.7,44.7,0,1,1,44.7-44.7A44.687,44.687,0,0,1,328.5,335.909Z" transform="translate(-279.2 -242)"/></clipPath><linearGradient id="c" x1="0.003" y1="0.502" x2="0.99" y2="0.502" gradientUnits="objectBoundingBox"><stop offset="0" stop-color="#a38454"/><stop offset="0.236" stop-color="#ae915e"/><stop offset="0.688" stop-color="#c1a56f"/><stop offset="1" stop-color="#caaf75"/></linearGradient><linearGradient id="d" x1="-0.013" y1="0.499" x2="0.995" y2="0.499" xlink:href="#c"/><linearGradient id="e" x1="-0.003" y1="0.497" x2="1.003" y2="0.497" xlink:href="#c"/><linearGradient id="f" x1="0.019" y1="0.494" x2="1.003" y2="0.494" xlink:href="#c"/><linearGradient id="g" x1="-0.016" y1="0.497" x2="0.979" y2="0.497" xlink:href="#c"/><linearGradient id="h" x1="-0.002" y1="0.497" x2="1.002" y2="0.497" xlink:href="#c"/><linearGradient id="i" x1="-0.006" y1="0.497" x2="0.998" y2="0.497" xlink:href="#c"/><linearGradient id="j" x1="0.002" y1="0.497" x2="0.999" y2="0.497" xlink:href="#c"/><linearGradient id="k" x1="0.001" y1="0.497" x2="1.006" y2="0.497" xlink:href="#c"/><linearGradient id="l" x1="-0.018" y1="0.503" x2="0.994" y2="0.503" xlink:href="#c"/><linearGradient id="m" x1="0.016" y1="0.502" x2="1.013" y2="0.502" xlink:href="#c"/><linearGradient id="n" x1="-0.008" y1="0.497" x2="0.986" y2="0.497" xlink:href="#c"/><linearGradient id="o" x1="0.001" y1="0.501" x2="1" y2="0.501" gradientUnits="objectBoundingBox"><stop offset="0" stop-color="#66133d"/><stop offset="0.322" stop-color="#751744"/><stop offset="0.723" stop-color="#84194b"/><stop offset="1" stop-color="#891a4d"/></linearGradient><linearGradient id="p" x1="0" y1="0.505" x2="0.998" y2="0.505" xlink:href="#c"/><linearGradient id="q" x1="0.001" y1="0.499" x2="0.999" y2="0.499" xlink:href="#c"/><linearGradient id="r" x1="0" y1="0.499" x2="0.999" y2="0.499" xlink:href="#c"/><linearGradient id="s" x1="0.004" y1="0.499" x2="1.003" y2="0.499" xlink:href="#c"/><linearGradient id="t" x1="0.003" y1="0.502" x2="1.002" y2="0.502" xlink:href="#c"/><linearGradient id="u" x1="0.001" y1="0.499" x2="0.998" y2="0.499" xlink:href="#c"/><linearGradient id="v" x1="0.001" y1="0.499" x2="1.004" y2="0.499" xlink:href="#c"/><linearGradient id="w" x1="-0.001" y1="0.499" x2="0.993" y2="0.499" xlink:href="#c"/><linearGradient id="x" x1="0.003" y1="0.499" x2="1.003" y2="0.499" xlink:href="#c"/></defs><g transform="translate(-279.2 -242)"><g transform="translate(279.2 242)"><g class="a"><g transform="translate(48.769)"><rect class="b" width="0.531" height="98.511"/></g><g transform="translate(24.178 6.472)"><rect class="b" width="0.531" height="98.511" transform="matrix(0.866, -0.5, 0.5, 0.866, 0, 0.266)"/></g><g transform="translate(6.262 24.422)"><rect class="b" width="0.531" height="98.511" transform="matrix(0.5, -0.866, 0.866, 0.5, 0, 0.46)"/></g><g transform="translate(-0.177 48.946)"><rect class="b" width="88.421" height="0.531"/></g><g transform="translate(6.26 24.386)"><rect class="b" width="98.511" height="0.531" transform="translate(0 49.197) rotate(-29.959)"/></g><g transform="translate(24.161 6.422)"><rect class="b" width="98.511" height="0.531" transform="translate(0 85.291) rotate(-59.974)"/></g></g><g class="c"><g transform="translate(43.937 -0.003)"><rect class="d" width="0.266" height="98.954" transform="translate(0 0.028) rotate(-5.999)"/></g><g transform="translate(38.816 0.788)"><rect class="d" width="0.266" height="98.954" transform="translate(0 0.055) rotate(-12)"/></g><g transform="translate(33.841 2.139)"><rect class="d" width="0.266" height="98.954" transform="translate(0 0.082) rotate(-17.998)"/></g><g transform="translate(28.978 3.973)"><rect class="d" width="0.266" height="98.954" transform="translate(0 0.108) rotate(-23.999)"/></g><g transform="translate(20.05 9.121)"><rect class="d" width="0.266" height="98.954" transform="matrix(0.809, -0.588, 0.588, 0.809, 0, 0.156)"/></g><g transform="translate(16.109 12.391)"><path class="d" d="M363.605,329.729,297.4,256.177l.177-.177,66.205,73.552Z" transform="translate(-297.4 -256)"/></g><g transform="translate(12.364 16.046)"><rect class="d" width="0.266" height="98.954" transform="matrix(0.669, -0.743, 0.743, 0.669, 0, 0.197)"/></g><g transform="translate(9.205 20.092)"><path class="d" d="M369.613,323.028,289.6,264.877l.089-.177,80.1,58.151Z" transform="translate(-289.6 -264.7)"/></g><g transform="translate(3.968 29.017)"><rect class="d" width="0.266" height="98.954" transform="translate(0 0.243) rotate(-66.001)"/></g><g transform="translate(2.213 33.811)"><path class="d" d="M364.1,307.284l-82.4-26.818V280.2l82.491,26.819Z" transform="translate(-281.7 -280.2)"/></g><g transform="translate(0.885 38.856)"><path class="d" d="M364.2,303.69l-84-17.613V285.9l84,17.613Z" transform="translate(-280.2 -285.9)"/></g><g transform="translate(0.045 43.947)"><rect class="d" width="0.266" height="92.935" transform="translate(0 0.264) rotate(-84.001)"/></g><g transform="translate(0.05 45.256)"><rect class="d" width="86.563" height="0.177" transform="translate(0 9.115) rotate(-6.045)"/></g><g transform="translate(0.885 41.688)"><path class="d" d="M280.2,307.068v-.177l83.376-17.79.089.177Z" transform="translate(-280.2 -289.1)"/></g><g transform="translate(2.188 33.884)"><rect class="d" width="98.688" height="0.266" transform="translate(0 30.455) rotate(-17.975)"/></g><g transform="translate(4.026 29.035)"><rect class="d" width="98.954" height="0.266" transform="matrix(0.914, -0.406, 0.406, 0.914, 0, 40.185)"/></g><g transform="translate(9.205 20.092)"><path class="d" d="M289.689,323.028l-.089-.177L369.613,264.7l.177.177Z" transform="translate(-289.6 -264.7)"/></g><g transform="translate(12.415 16.053)"><rect class="d" width="98.954" height="0.266" transform="matrix(0.744, -0.669, 0.669, 0.744, 0, 66.151)"/></g><g transform="translate(16.109 12.391)"><path class="d" d="M297.577,329.729l-.177-.177L363.605,256l.177.177Z" transform="translate(-297.4 -256)"/></g><g transform="translate(20.086 9.143)"><rect class="d" width="98.954" height="0.266" transform="translate(0 80.024) rotate(-53.97)"/></g><g transform="translate(29.075 3.969)"><rect class="d" width="98.954" height="0.266" transform="matrix(0.406, -0.914, 0.914, 0.406, 0, 90.424)"/></g><g transform="translate(33.878 2.143)"><rect class="d" width="98.954" height="0.266" transform="translate(0 94.105) rotate(-71.989)"/></g><g transform="translate(38.92 0.789)"><rect class="d" width="98.954" height="0.266" transform="translate(0 96.807) rotate(-78.03)"/></g><g transform="translate(43.942 0.027)"><rect class="d" width="98.954" height="0.266" transform="translate(0 98.4) rotate(-83.961)"/></g></g></g><g transform="translate(424.002 311.126)"><path class="e" d="M442.8,320.2h1.947a3.56,3.56,0,0,1,2.3.62,2.11,2.11,0,0,1,.8,1.77,2.185,2.185,0,0,1-1.328,2.036,2.327,2.327,0,0,1,1.328,4.071,3.455,3.455,0,0,1-2.213.62h-2.655V320.2Zm.708.62v3.629h.974c1.682,0,2.478-.62,2.478-1.859s-.885-1.859-2.567-1.859h-.885Zm0,4.249v3.717h1.859a2.49,2.49,0,0,0,1.77-.531,1.593,1.593,0,0,0,.62-1.328c0-1.239-.885-1.859-2.744-1.859Z" transform="translate(-442.8 -320.112)"/><path class="f" d="M457.8,320.2h.708v4.957a4.619,4.619,0,0,1-1.062,3.186,3.731,3.731,0,0,1-2.744,1.151,3.667,3.667,0,0,1-2.744-1.062,4.164,4.164,0,0,1-1.062-3.009v-5.134h.708v5.134a3.492,3.492,0,0,0,.885,2.567,2.936,2.936,0,0,0,2.213.885,3.214,3.214,0,0,0,2.3-.974,3.575,3.575,0,0,0,.885-2.655V320.2Z" transform="translate(-443.731 -320.112)"/><path class="g" d="M468.389,320.2l-3.54,4.248v4.957h-.708v-4.957L460.6,320.2h.885l3.1,3.629,3.009-3.629Z" transform="translate(-444.845 -320.112)"/><path class="h" d="M483.768,320.64v.8a4.658,4.658,0,0,0-2.036-.708,2.17,2.17,0,0,0-1.416.531,1.607,1.607,0,0,0-.531,1.239,1.331,1.331,0,0,0,.354.974,3.436,3.436,0,0,0,1.328.8,9.776,9.776,0,0,1,1.5.62,1.737,1.737,0,0,1,.8.8,2.133,2.133,0,0,1,.354,1.328,2.228,2.228,0,0,1-.8,1.77,2.856,2.856,0,0,1-1.859.708,4.511,4.511,0,0,1-2.39-.8v-.8a4.452,4.452,0,0,0,2.3.974,2.17,2.17,0,0,0,1.416-.531,1.8,1.8,0,0,0,.531-1.328,1.7,1.7,0,0,0-.354-1.062,3,3,0,0,0-1.416-.885c-.708-.266-1.239-.531-1.5-.62a5.727,5.727,0,0,1-.8-.708,2.213,2.213,0,0,1-.354-1.151,2.056,2.056,0,0,1,.8-1.682,2.857,2.857,0,0,1,1.859-.708A3.845,3.845,0,0,1,483.768,320.64Z" transform="translate(-446.948 -320.109)"/><path class="i" d="M491.857,320.2v.62h-4.248v3.629h4.16v.62h-4.16v3.717h4.425v.62H486.9V320.2h4.956Z" transform="translate(-447.867 -320.112)"/><path class="j" d="M495.108,320.2v8.585h4.514v.62H494.4V320.2h.708Z" transform="translate(-448.729 -320.112)"/><path class="k" d="M502.408,320.2v8.585h4.514v.62H501.7V320.2h.708Z" transform="translate(-449.568 -320.112)"/><path class="l" d="M522.012,320.2v.62H518.56v8.585h-.708V320.82H514.4v-.62Z" transform="translate(-451.027 -320.112)"/><path class="m" d="M524.4,320.2h2.39a3.151,3.151,0,0,1,2.213.62,2.11,2.11,0,0,1,.8,1.77,2.317,2.317,0,0,1-1.77,2.213,5.348,5.348,0,0,1,1.239,1.416l2.036,3.186h-.8l-1.593-2.478a11.128,11.128,0,0,0-1.239-1.593,2.388,2.388,0,0,0-1.328-.354h-1.239v4.426H524.4Zm.708.62v3.629h1.5a3.255,3.255,0,0,0,1.77-.443,1.732,1.732,0,0,0,0-2.655,2.638,2.638,0,0,0-1.77-.443h-1.5Z" transform="translate(-452.176 -320.112)"/><path class="n" d="M536.814,320.1l4.248,9.205h-.708l-1.416-3.186h-4.514l-1.416,3.186H532.3l4.249-9.205Zm1.77,5.488-1.947-4.337-1.947,4.337Z" transform="translate(-453.084 -320.1)"/><path class="o" d="M543.489,320.2h3.186a5.377,5.377,0,0,1,3.717,1.239,4.334,4.334,0,0,1,1.239,3.275,4.7,4.7,0,0,1-1.239,3.275,4.813,4.813,0,0,1-3.629,1.328H543.4V320.2Zm.708.62v7.966h2.567a4.089,4.089,0,0,0,2.921-1.062,3.678,3.678,0,0,0,1.151-2.921,3.935,3.935,0,0,0-1.151-2.921,4.371,4.371,0,0,0-3.009-1.151H544.2Z" transform="translate(-454.359 -320.112)"/><path class="p" d="M559.957,320.2v.62h-4.248v3.629h4.16v.62h-4.16v3.717h4.425v.62H555V320.2h4.957Z" transform="translate(-455.692 -320.112)"/></g><path class="q" d="M330.955,307.447l-.443-43.547h-1.5l-.62,26.287a4.854,4.854,0,0,0-.708,1.77l-33.014-4.868-.266,1.593,33.1,6.284v.089L307.234,314.97l.708.62,20.092-19.207.177.177-.266,10.975Z" transform="translate(-1.747 -2.516)"/><path class="r" d="M329.79,284.959h-2.3c-2.39,0-3.983.354-4.78.974s-1.5,2.124-1.947,4.426H319.7l.266-7.258h23.986l.266,7.258h-1.062c-.443-2.39-1.151-3.806-1.947-4.514s-2.39-.974-4.779-.974h-2.3v21.685c0,1.593.266,2.567.708,3.009s1.593.708,3.363.8v.8H325.807v-.8c1.77-.089,2.832-.443,3.275-.885s.708-1.593.708-3.452V284.959Z" transform="translate(-4.654 -4.722)"/><path class="s" d="M352.26,306.755V287.9c0-1.593-.266-2.567-.708-3.009s-1.593-.708-3.452-.8v-.8h12.657v.8a6.457,6.457,0,0,0-3.452.8c-.531.443-.708,1.416-.708,3.009v18.853c0,1.593.266,2.567.8,3.009a6.326,6.326,0,0,0,3.363.8v.8H348.1v-.8c1.77-.089,2.921-.354,3.363-.8C351.994,309.322,352.26,308.348,352.26,306.755Z" transform="translate(-7.917 -4.745)"/><path class="t" d="M391.946,287.017l-10.887,24.34h-.62l-10.621-23.367v17.171q0,3.186.8,4.248c.531.708,1.593,1.062,3.186,1.151v.8h-10v-.8c1.77-.089,2.921-.531,3.363-1.151.531-.708.708-2.124.708-4.248V287.9c0-1.593-.266-2.567-.708-3.009s-1.593-.708-3.363-.8v-.8h8.408l9.825,21.419,9.382-21.419h8.5v.8c-1.593.177-2.567.443-3.009.885s-.62,1.416-.62,2.921v18.853a4.33,4.33,0,0,0,.708,2.921,4.792,4.792,0,0,0,3.009.885v.8H388.14v-.8a5.224,5.224,0,0,0,3.186-.885c.443-.531.708-1.593.708-3.363v-19.3Z" transform="translate(-9.721 -4.745)"/><path class="u" d="M414.543,307.994c0,.8.266,1.328.708,1.5a14.421,14.421,0,0,0,3.717.266h1.151c3.009,0,5.222-.354,6.461-1.062,1.328-.708,2.478-2.213,3.54-4.514h1.151l-1.947,7.169H406.4v-.8a4.792,4.792,0,0,0,3.009-.885,4.33,4.33,0,0,0,.708-2.921V287.9a4.33,4.33,0,0,0-.708-2.921,4.792,4.792,0,0,0-3.009-.885v-.8h22.659l.089,6.107h-1.062a6,6,0,0,0-1.682-3.629q-1.195-.8-4.78-.8h-5.753a1.825,1.825,0,0,0-1.151.266,1.66,1.66,0,0,0-.266,1.151v9.471H421c1.77,0,3.009-.266,3.54-.8a6.136,6.136,0,0,0,1.151-3.186h.974v9.825H425.7a6.143,6.143,0,0,0-1.239-3.363c-.531-.531-1.682-.708-3.452-.708h-6.55v10.356Z" transform="translate(-14.616 -4.745)"/><path class="v" d="M456.893,290.9a8.727,8.727,0,0,1-.266,2.124,7.573,7.573,0,0,1-.974,2.124,6.8,6.8,0,0,1-1.947,1.947,13.68,13.68,0,0,1-3.363,1.416,20.75,20.75,0,0,1-4.957.531c-.885,0-1.859,0-2.921-.089v7.7c0,1.593.266,2.567.708,3.009a5.95,5.95,0,0,0,3.275.8v.8h-11.86v-.8c1.593-.177,2.655-.443,3.009-.885s.531-1.593.531-3.363V287.8c0-1.5-.177-2.478-.62-2.921-.354-.443-1.416-.708-3.009-.885v-.8h11.241a17.633,17.633,0,0,1,3.717.354A18.335,18.335,0,0,1,453,284.7a6.752,6.752,0,0,1,2.832,2.39A6.837,6.837,0,0,1,456.893,290.9Zm-14.427-4.691v11.064c.974.089,1.77.089,2.39.089,4.957,0,7.435-2.124,7.435-6.284a5.553,5.553,0,0,0-2.036-4.78,10.826,10.826,0,0,0-6.373-1.593,1.826,1.826,0,0,0-1.151.266A2.571,2.571,0,0,0,442.466,286.209Z" transform="translate(-17.844 -4.734)"/><path class="w" d="M464.56,306.755V287.9c0-1.593-.266-2.567-.708-3.009s-1.593-.708-3.452-.8v-.8h12.657v.8a6.456,6.456,0,0,0-3.452.8c-.531.443-.708,1.416-.708,3.009v18.853c0,1.593.265,2.567.8,3.009a6.326,6.326,0,0,0,3.363.8v.8H460.4v-.8c1.77-.089,2.921-.354,3.363-.8C464.294,309.322,464.56,308.348,464.56,306.755Z" transform="translate(-20.82 -4.745)"/><path class="x" d="M484.154,307.994c0,.8.266,1.328.708,1.5a14.421,14.421,0,0,0,3.717.266h1.151c3.009,0,5.222-.354,6.461-1.062,1.328-.708,2.478-2.213,3.54-4.514h1.151l-1.859,7.169H476.1v-.8a4.792,4.792,0,0,0,3.009-.885,4.33,4.33,0,0,0,.708-2.921V287.9a4.33,4.33,0,0,0-.708-2.921,4.792,4.792,0,0,0-3.009-.885v-.8h22.57l.089,6.107H497.7a6,6,0,0,0-1.682-3.629q-1.195-.8-4.78-.8h-5.753a1.826,1.826,0,0,0-1.151.266,1.661,1.661,0,0,0-.265,1.151v9.471h6.55c1.77,0,3.009-.266,3.54-.8a6.136,6.136,0,0,0,1.151-3.186h.974v9.825h-.974a6.143,6.143,0,0,0-1.239-3.363,5.86,5.86,0,0,0-3.452-.708h-6.55v10.356Z" transform="translate(-22.624 -4.745)"/><path class="y" d="M505.3,297.458c0-4.425,1.328-8.054,4.071-10.8a13.816,13.816,0,0,1,10.179-4.16,19.43,19.43,0,0,1,5.134.708,23.917,23.917,0,0,0,2.744.708,1.65,1.65,0,0,0,1.77-1.416h.885l.354,9.648h-.974c-1.593-5.311-4.6-7.877-9.117-7.877A8.789,8.789,0,0,0,513,287.722c-1.859,2.3-2.744,5.4-2.744,9.205a19.3,19.3,0,0,0,.974,6.373,9.226,9.226,0,0,0,2.567,4.071,12.209,12.209,0,0,0,3.363,2.036,10.251,10.251,0,0,0,3.717.62c3.363,0,6.461-1.416,9.471-4.248l.8.8a12.1,12.1,0,0,1-4.957,3.983,15.156,15.156,0,0,1-6.638,1.416,13.6,13.6,0,0,1-10.179-3.983C506.539,305.247,505.3,301.8,505.3,297.458Z" transform="translate(-25.979 -4.654)"/><path class="z" d="M542.643,307.994c0,.8.266,1.328.708,1.5a14.422,14.422,0,0,0,3.717.266h1.151c3.009,0,5.222-.354,6.461-1.062,1.328-.708,2.478-2.213,3.54-4.514h1.151l-1.947,7.169H534.5v-.8a4.792,4.792,0,0,0,3.009-.885,4.331,4.331,0,0,0,.708-2.921V287.9a4.331,4.331,0,0,0-.708-2.921,4.792,4.792,0,0,0-3.009-.885v-.8h22.57l.089,6.107h-.974a6,6,0,0,0-1.682-3.629c-.708-.531-2.39-.8-4.78-.8H543.97a1.825,1.825,0,0,0-1.151.266,1.661,1.661,0,0,0-.266,1.151v9.471h6.55c1.77,0,3.009-.266,3.54-.8a6.136,6.136,0,0,0,1.151-3.186h.974v9.825H553.8a6.143,6.143,0,0,0-1.239-3.363,5.86,5.86,0,0,0-3.452-.708h-6.55v10.356Z" transform="translate(-29.334 -4.745)"/></g></svg>