<svg xmlns="http://www.w3.org/2000/svg" xmlns:xlink="http://www.w3.org/1999/xlink" width="335.45" height="388.102" viewBox="0 0 335.45 388.102">
  <defs>
    <linearGradient id="linear-gradient" x1="-0.325" y1="2.203" x2="-0.325" y2="1.276" gradientUnits="objectBoundingBox">
      <stop offset="0" stop-color="#774c00"/>
      <stop offset="1" stop-color="#ffa300"/>
    </linearGradient>
    <radialGradient id="radial-gradient" cx="0.674" cy="0.176" r="0.569" gradientTransform="matrix(-1.769, -0.315, -0.587, 0.949, 11.084, 1.244)" gradientUnits="objectBoundingBox">
      <stop offset="0" stop-color="#ffa73e"/>
      <stop offset="1" stop-color="#ff872e"/>
    </radialGradient>
    <radialGradient id="radial-gradient-2" cx="0.62" cy="-0.022" r="0.913" gradientTransform="matrix(0.655, 0.251, -0.17, 0.968, -1.672, 1.344)" xlink:href="#radial-gradient"/>
    <radialGradient id="radial-gradient-3" cx="0.532" cy="0.514" r="0.57" gradientTransform="matrix(0.745, -0.108, 0.081, 0.994, 0.121, 0.06)" gradientUnits="objectBoundingBox">
      <stop offset="0" stop-color="#ff9d4d"/>
      <stop offset="1" stop-color="#f97000"/>
    </radialGradient>
    <radialGradient id="radial-gradient-4" cx="0.512" cy="0.484" r="0.5" gradientTransform="matrix(0.977, -0.108, 0.106, 0.994, -0.014, 0.06)" xlink:href="#radial-gradient-3"/>
    <radialGradient id="radial-gradient-5" cx="0.439" cy="0.185" r="0.574" gradientTransform="matrix(0.98, -0.108, 0.106, 0.994, 0.016, 0.055)" gradientUnits="objectBoundingBox">
      <stop offset="0" stop-color="#ffda99"/>
      <stop offset="1" stop-color="#ff933b"/>
    </radialGradient>
    <linearGradient id="linear-gradient-2" x1="0.005" y1="-0.658" x2="0.936" y2="-0.658" gradientUnits="objectBoundingBox">
      <stop offset="0" stop-color="#edb97a"/>
      <stop offset="1" stop-color="#c1b091"/>
    </linearGradient>
    <radialGradient id="radial-gradient-6" cx="0.469" cy="0.515" r="0.568" gradientTransform="matrix(-0.747, -0.108, -0.081, 0.994, 3.602, 0.223)" xlink:href="#radial-gradient-3"/>
    <radialGradient id="radial-gradient-7" cx="0.487" cy="0.484" r="0.5" gradientTransform="matrix(-0.976, -0.108, -0.106, 0.994, 4.133, 0.225)" xlink:href="#radial-gradient-3"/>
    <radialGradient id="radial-gradient-8" cx="0.783" cy="0.285" r="0.574" gradientTransform="matrix(-0.98, -0.108, -0.106, 0.994, 3.561, 0.194)" xlink:href="#radial-gradient-5"/>
    <linearGradient id="linear-gradient-3" x1="6.134" y1="1.399" x2="7.065" y2="1.399" xlink:href="#linear-gradient-2"/>
    <linearGradient id="linear-gradient-4" x1="-0.15" y1="1.119" x2="0.851" y2="1.119" gradientUnits="objectBoundingBox">
      <stop offset="0" stop-color="#875600"/>
      <stop offset="0.468" stop-color="#e5a93e"/>
      <stop offset="1" stop-color="#ffd488"/>
    </linearGradient>
    <radialGradient id="radial-gradient-9" cx="0.586" cy="0.284" r="0.582" gradientTransform="matrix(0.771, 0.59, -0.563, 0.807, 0.532, 0.01)" gradientUnits="objectBoundingBox">
      <stop offset="0" stop-color="#ebbc56"/>
      <stop offset="1" stop-color="#ea9e1c"/>
    </radialGradient>
    <linearGradient id="linear-gradient-5" x1="0.001" y1="0.499" x2="1" y2="0.499" gradientUnits="objectBoundingBox">
      <stop offset="0" stop-color="#8b8be0"/>
      <stop offset="1" stop-color="#c1b091"/>
    </linearGradient>
    <radialGradient id="radial-gradient-10" cx="0.659" cy="0.334" r="3.96" gradientTransform="translate(0.442) scale(0.116 1)" gradientUnits="objectBoundingBox">
      <stop offset="0" stop-color="#3996f7"/>
      <stop offset="1" stop-color="#744fd8"/>
    </radialGradient>
    <linearGradient id="linear-gradient-6" x1="0.5" y1="1" x2="0.5" gradientUnits="objectBoundingBox">
      <stop offset="0" stop-color="#1c257b"/>
      <stop offset="1" stop-color="#4f3bba"/>
    </linearGradient>
    <linearGradient id="linear-gradient-7" x1="0.5" y1="0.99" x2="0.5" y2="-0.007" gradientUnits="objectBoundingBox">
      <stop offset="0" stop-color="#7460e0"/>
      <stop offset="1" stop-color="#fff"/>
    </linearGradient>
  </defs>
  <g id="Group_7" data-name="Group 7" transform="translate(0 0.102)">
    <path id="Path_1" data-name="Path 1" d="M5.4,189.2c-3.2-69.6,94.8-157,179.1-142.5,89.1,15.3,167.3,208.8,82.8,274C182.9,385.9,8.6,259.8,5.4,189.2Z" fill="#e8a846" opacity="0.08"/>
    <path id="Path_2" data-name="Path 2" d="M194.9,207.7s2.4-78,87.7-122.9c0,0,24.9,71.5-67,143.1Z" fill="url(#linear-gradient)"/>
    <path id="Path_3" data-name="Path 3" d="M279.3,91.5,207.4,211l-6.5-18.1S209.2,123,279.3,91.5Z" fill="#ffe6bb"/>
    <path id="Path_4" data-name="Path 4" d="M130.5,218.5s20.2-69.3-48.3-106.8c0,0-29.3,63,39.3,104.3Z" fill="url(#radial-gradient)"/>
    <path id="Path_5" data-name="Path 5" d="M82.2,111.7l48.3,106.8-10.3-6C120.2,212.4,61.9,177.8,82.2,111.7Z" fill="#ffe6bb"/>
    <path id="Path_6" data-name="Path 6" d="M219.7,197s13.5-45.4,64.7-41.7c0,0-6.3,45.2-58.9,43.5Z" fill="url(#radial-gradient-2)"/>
    <path id="Path_7" data-name="Path 7" d="M284.4,155.3,219.7,197l7.8.4S272.1,199.1,284.4,155.3Z" fill="#ffe6bb"/>
    <path id="Path_8" data-name="Path 8" d="M0,123.2,20.5,91.8l10.9,7.5L9.6,128.7Z" fill="#cea661"/>
    <path id="Path_9" data-name="Path 9" d="M250.5,77,236.1,96.3l-6.1-5,13.2-17.8Z" fill="#d37d2f"/>
    <path id="Path_10" data-name="Path 10" d="M127.8,103.4l-23.4,5.8-1.6-7.7L124.3,96Z" fill="#d37d2f"/>
    <path id="Path_11" data-name="Path 11" d="M173.6,66.2l-2.5-29.3,10.1-6L189,66.6Z" fill="#ffb839"/>
    <g id="Group_2" data-name="Group 2">
      <g id="Group_1" data-name="Group 1">
        <path id="Path_12" data-name="Path 12" d="M102,269.3l-1.2,1.8,5.8,22.4c.1.3.1.7.2,1a44.785,44.785,0,0,1,.2,14.1l-2.5-.7-16.8-4.6-17.4-4.8L36.5,316c-1.1-2.2-2.6-9.6-2.8-15.5V300l1-22.1-1.4-1.4L7.6,251.3c-1.3-4.1-2.1-6.5-1.1-10.2l37-3.9,15-1.6,25.2-2.7,36.9-3.9c1.3,3,2,5.3,1.1,10.2Z" fill="url(#radial-gradient-3)"/>
        <path id="Path_13" data-name="Path 13" d="M102.1,269.7c-.4.4-.8.9-1.3,1.4l4.5,27.6,1.6,10H104a38.707,38.707,0,0,1-4.9-.5,24.887,24.887,0,0,1-3.2-.6c-.7-.2-1.5-.3-2.3-.5a23.346,23.346,0,0,1-2.5-.7c-.8-.2-1.7-.5-2.5-.7a.367.367,0,0,1-.3-.1,6.884,6.884,0,0,0-.8-.3c-6.3-2-12-4.6-17.4-6.8-10.5,7.8-19.6,12-33.8,17.5L36,306l-1.3-27.9c-.5-.3-.9-.7-1.4-1-11.1-8.3-19.7-15.4-25.6-25.7l4.6-1.7,31-11.7.3-.6,8-15.9L60.4,204l23.3,29,.4.5,32.1,4.9,5.5.8C116.6,252.1,111.2,259.5,102.1,269.7Z" fill="url(#radial-gradient-4)"/>
        <path id="Path_14" data-name="Path 14" d="M116.3,238.4c-6.1,9.6-16.5,22.5-16.5,22.5s1,3.5,2.3,8.4c0,.1.1.3.1.4,2,7.8,4.6,19,4.7,24.8,0,2.1-.2,3.5-.9,3.9a.764.764,0,0,1-.5.2,7.976,7.976,0,0,1-3.2.1h-.2c-.6-.1-1.2-.2-1.9-.3-.9-.2-1.9-.4-2.9-.6-2.8-.7-5.9-1.6-9.1-2.6h0c-7.7-2.5-15.5-5.5-18-6.5a4.107,4.107,0,0,1-.9-.4S42.4,306.4,36,306a1.268,1.268,0,0,1-.6-.1c-.8-.3-1.4-2.5-1.7-5.7v-.1c-.7-6.1-.6-15.9-.4-23.1v-.4c.1-5.1.3-8.8.3-8.8s-13.4-10.2-21.4-18.3c-3.5-3.6-6-6.8-5.7-8.4.8-4.7,35.6-13.5,35.6-13.5s2.4-6.6,5.5-14v-.1c3.9-9.2,8.9-19.6,11.5-19.9,5.2-.6,23.8,29.7,23.8,29.7s37.2,2.2,37.6,5.8C120.8,230.7,118.9,234.3,116.3,238.4Z" fill="url(#radial-gradient-5)"/>
      </g>
      <path id="Path_15" data-name="Path 15" d="M104.6,308.6h-.5a33.437,33.437,0,0,1-4.9-.5,24.887,24.887,0,0,1-3.2-.6c-.7-.2-1.5-.3-2.3-.5a23.346,23.346,0,0,1-2.5-.7c-.8-.2-1.7-.5-2.5-.7a.367.367,0,0,1-.3-.1c-.2-.1-.5-.1-.8-.2h0a134.816,134.816,0,0,1-17.4-6.8l-1.1-10.2a7.862,7.862,0,0,1,.9.4c2.5,1.1,10,4.2,18,6.7a81.769,81.769,0,0,0,9.1,2.4c1,.2,1.9.4,2.9.6.6.1,1.3.2,1.9.3h.2c.2,0,.3.1.5.1l1.8,9.1Z" opacity="0.62" fill="url(#linear-gradient-2)"/>
    </g>
    <path id="Path_16" data-name="Path 16" d="M121.7,239.3c-5.1,12.8-10.5,20.3-19.6,30.4,2,7.8,4.6,19,4.7,24.8a44.785,44.785,0,0,1,.2,14.1h-2.9a33.437,33.437,0,0,1-4.9-.5,24.887,24.887,0,0,1-3.2-.6c-.7-.2-1.5-.3-2.3-.5a23.346,23.346,0,0,1-2.5-.7c-.8-.2-1.7-.5-2.5-.7a.367.367,0,0,1-.3-.1c-.2-.1-.5-.1-.8-.2h0l.1-2,.4-7.9v-.2h0L58.5,235.6l-7.1-14.3-3.8-7.7v-.1c3.9-9.2,8.9-19.6,11.5-19.9,5.2-.6,23.8,29.7,23.8,29.7s37.2,2.2,37.6,5.8C122,232.1,122.6,234.5,121.7,239.3Z" fill="#7c530b" opacity="0.5"/>
    <g id="Group_4" data-name="Group 4">
      <g id="Group_3" data-name="Group 3">
        <path id="Path_17" data-name="Path 17" d="M239.6,269.3l1.2,1.8L235,293.5c-.1.3-.1.7-.2,1a44.786,44.786,0,0,0-.2,14.1l2.5-.7,16.8-4.6,17.4-4.8L305.1,316c1.1-2.2,2.6-9.6,2.8-15.5V300l-1-22.1,1.4-1.4,25.6-25.4c1.3-4.1,2.1-6.5,1.1-10.2L298,237l-15-1.6-25.2-2.7-36.9-3.9c-1.3,3-2,5.3-1.1,10.2Z" fill="url(#radial-gradient-6)"/>
        <path id="Path_18" data-name="Path 18" d="M239.5,269.7c.4.4.8.9,1.3,1.4l-4.5,27.6-1.6,10h2.9a38.707,38.707,0,0,0,4.9-.5,24.887,24.887,0,0,0,3.2-.6c.7-.2,1.5-.3,2.3-.5a23.346,23.346,0,0,0,2.5-.7c.8-.2,1.7-.5,2.5-.7a.367.367,0,0,0,.3-.1,6.884,6.884,0,0,1,.8-.3c6.3-2,12-4.6,17.4-6.8,10.5,7.8,19.6,12,33.8,17.5l.5-10.1,1.3-27.9c.5-.3.9-.7,1.4-1,11.1-8.3,19.7-15.4,25.6-25.7l-4.6-1.7-31-11.7-.3-.6-8-15.9-8.8-17.5L257.9,233l-.4.5-32.1,4.9-5.5.8C225,252.1,230.4,259.5,239.5,269.7Z" fill="url(#radial-gradient-7)"/>
        <path id="Path_19" data-name="Path 19" d="M225.4,238.4c6.1,9.6,16.5,22.5,16.5,22.5s-1,3.5-2.3,8.4c0,.1-.1.3-.1.4-2,7.8-4.6,19-4.7,24.8,0,2.1.2,3.5.9,3.9a.764.764,0,0,0,.5.2,7.976,7.976,0,0,0,3.2.1h.2c.6-.1,1.2-.2,1.9-.3.9-.2,1.9-.4,2.9-.6,2.8-.7,5.9-1.6,9.1-2.6h0c7.7-2.5,15.5-5.5,18-6.5a4.107,4.107,0,0,0,.9-.4s26.8,17.9,33.2,17.5a1.268,1.268,0,0,0,.6-.1c.8-.3,1.4-2.5,1.7-5.7v-.1c.7-6.1.6-15.9.4-23.1v-.4c-.1-5.1-.3-8.8-.3-8.8s13.4-10.2,21.4-18.3c3.5-3.6,6-6.8,5.7-8.4-.8-4.7-35.6-13.5-35.6-13.5s-2.4-6.6-5.5-14v-.1c-3.9-9.2-8.9-19.6-11.5-19.9-5.2-.6-23.8,29.7-23.8,29.7s-37.2,2.2-37.6,5.8C220.8,230.7,222.7,234.3,225.4,238.4Z" fill="url(#radial-gradient-8)"/>
      </g>
      <path id="Path_20" data-name="Path 20" d="M237,308.6h.5a33.437,33.437,0,0,0,4.9-.5,24.887,24.887,0,0,0,3.2-.6c.7-.2,1.5-.3,2.3-.5a23.346,23.346,0,0,0,2.5-.7c.8-.2,1.7-.5,2.5-.7a.367.367,0,0,0,.3-.1c.2-.1.5-.1.8-.2h0a134.816,134.816,0,0,0,17.4-6.8l1.1-10.2a7.863,7.863,0,0,0-.9.4c-2.5,1.1-10,4.2-18,6.7a81.768,81.768,0,0,1-9.1,2.4c-1,.2-1.9.4-2.9.6-.6.1-1.3.2-1.9.3h-.2c-.2,0-.3.1-.5.1l-1.8,9.1Z" opacity="0.62" fill="url(#linear-gradient-3)"/>
    </g>
    <g id="Group_5" data-name="Group 5">
      <path id="Path_21" data-name="Path 21" d="M262.4,192.3c1.6,5,2.2,8.6,0,16l-37.8,46,5.2,35.9c.8,8-.5,19.2-2,23.6L172.3,292l-55.6,21.5c-1.4-3.7-2.4-15.3-1.8-24.6l5.4-34.9L82.7,207.8c-1.4-6.6-2.2-10.4,0-16Z" fill="#9e6e19"/>
      <path id="Path_22" data-name="Path 22" d="M204.8,193l57.6,15.3c-10.6,20-20.7,30.7-37.8,46l3.2,59.5c-22.2-2.1-39.9-13.6-55.4-21.8-17.6,10.3-32.6,15.4-55.6,21.5l3.6-59.5c-16.8-15.6-29.8-28.4-37.6-46.2l57.6-15,32.3-50Z" fill="#9e6e19"/>
      <path id="Path_23" data-name="Path 23" d="M204.8,177s57.6,9.6,57.6,15.3c0,8.2-37.8,46-37.8,46s9.8,56,3.2,59.5c-7.3,3.9-55.4-21.8-55.4-21.8s-47.9,25.1-55.6,21.5c-5.4-2.6,3.6-59.5,3.6-59.5s-39.9-37.8-37.6-46.2c2-7.2,57.6-15,57.6-15s24.7-50,32.3-50C181,126.8,204.8,177,204.8,177Z" fill="url(#linear-gradient-4)"/>
      <path id="Path_24" data-name="Path 24" d="M223.8,292.1c-8.7,0-39-15.2-50-21.1l-1.5-.8-1.5.8c-11,5.8-41.4,20.7-50.2,20.7h-.1c-1.5-5.5,1.2-31.7,4.7-54.1l.3-1.7-1.2-1.2c-17-16.1-35-36.2-35.4-41.3,3.7-3.5,30.1-9.1,53-12.3l1.7-.2.7-1.5c10.3-20.8,23.8-44.1,28.4-46.5,4.7,2.2,18.1,25.6,28,46.6l.7,1.5,1.6.3c22.1,3.7,47.6,9.4,52.7,12.5-2.1,5.8-19.5,25.4-35.4,41.3l-1.2,1.2.3,1.6c4,22.7,6.7,49.3,4.5,54.1C224.1,292.1,223.9,292.1,223.8,292.1Z" fill="url(#radial-gradient-9)"/>
    </g>
    <path id="Path_25" data-name="Path 25" d="M172.3,292V276s30,17.3,50.4,21.9l1.4,15.5C224.1,313.3,206.1,312.3,172.3,292Z" opacity="0.62" fill="url(#linear-gradient-5)"/>
    <path id="Path_26" data-name="Path 26" d="M100.2,189.4s54.7,39.4,123.9,38.9c0,0,31.4-23.4,35.8-35.2,0,0-11.8-7.1-56.3-13.2,0,0-13.7-34.4-31-50.6,0,0-16.6,18.5-26.8,49.8C145.8,179.1,119,180.9,100.2,189.4Z" fill="#fff" opacity="0.3"/>
    <path id="Path_27" data-name="Path 27" d="M53,53.9c4.9,9.6,86.1-12.8,94.3-28.7S114.5-3.7,92,.8C69.6,5.4,46.7,41.5,53,53.9Z" fill="#e8a846" opacity="0.08"/>
    <path id="Path_28" data-name="Path 28" d="M86,305a65.644,65.644,0,0,1,23.6-15s59.4-11.5,132.5,0c0,0,13,7.2,17.2,15Z" fill="url(#radial-gradient-10)"/>
    <path id="Path_29" data-name="Path 29" d="M197.8,285.9l4.7,12.5s21.1.8,34.1,2.8l-7.4-13.1C229.1,288.2,208.6,285.8,197.8,285.9Z" fill="#fff" opacity="0.36"/>
    <path id="Path_30" data-name="Path 30" d="M98.6,376.3S86,353.3,86,305c0,0,76.8-17.9,173.3,0,0,0,0,48.1-17.6,83l-12-11.7Z" fill="url(#linear-gradient-6)"/>
    <g id="Group_6" data-name="Group 6" opacity="0.38">
      <path id="Path_31" data-name="Path 31" d="M120.8,319.8l1.4,8.7h95.3l1.5-9.4Z" fill="#fff"/>
      <path id="Path_32" data-name="Path 32" d="M122.9,333.1l1.5,7.5h44.2v-7.5Z" fill="#fff"/>
      <path id="Path_33" data-name="Path 33" d="M124.5,345.2l1.4,7.4h62.6v-7.4Z" fill="#fff"/>
    </g>
    <path id="Path_34" data-name="Path 34" d="M229.7,376.3l10.5-10.8S170.6,380,95.5,369.3l3,7.1Z" opacity="0.81" fill="url(#linear-gradient-7)"/>
  </g>
</svg>
